<svg width="23" height="23" viewBox="0 0 23 23" fill="none" xmlns="http://www.w3.org/2000/svg">
<path d="M5.52305 7.93745V6.84364C5.54791 6.37132 5.9208 5.99843 6.36827 5.99843L16.0385 5.97357C16.5108 5.99843 16.8837 6.37132 16.8837 6.81878V16.5139C16.8837 16.9614 16.5108 17.3342 16.0385 17.3591H14.9447C14.4724 17.3342 14.0995 16.9614 14.0746 16.489L14.2238 10.6222L7.08918 17.7568C6.74115 18.1049 6.24397 18.1049 5.89594 17.7568L5.10045 16.9614C4.77728 16.6382 4.75242 16.1161 5.10045 15.7681L12.235 8.63351L6.39313 8.80752C5.9208 8.78266 5.52305 8.43463 5.52305 7.93745Z"/>
</svg>
